ffmpeg version 4.4.2-0ubuntu0.22.04.1 Copyright (c) 2000-2021 the FFmpeg developers
  built with gcc 11 (Ubuntu 11.2.0-19ubuntu1)
  configuration: --prefix=/usr --extra-version=0ubuntu0.22.04.1 --toolchain=hardened --libdir=/usr/lib/x86_64-linux-gnu --incdir=/usr/include/x86_64-linux-gnu --arch=amd64 --enable-gpl --disable-stripping --enable-gnutls --enable-ladspa --enable-libaom --enable-libass --enable-libbluray --enable-libbs2b --enable-libcaca --enable-libcdio --enable-libcodec2 --enable-libdav1d --enable-libflite --enable-libfontconfig --enable-libfreetype --enable-libfribidi --enable-libgme --enable-libgsm --enable-libjack --enable-libmp3lame --enable-libmysofa --enable-libopenjpeg --enable-libopenmpt --enable-libopus --enable-libpulse --enable-librabbitmq --enable-librubberband --enable-libshine --enable-libsnappy --enable-libsoxr --enable-libspeex --enable-libsrt --enable-libssh --enable-libtheora --enable-libtwolame --enable-libvidstab --enable-libvorbis --enable-libvpx --enable-libwebp --enable-libx265 --enable-libxml2 --enable-libxvid --enable-libzimg --enable-libzmq --enable-libzvbi --enable-lv2 --enable-omx --enable-openal --enable-opencl --enable-opengl --enable-sdl2 --enable-pocketsphinx --enable-librsvg --enable-libmfx --enable-libdc1394 --enable-libdrm --enable-libiec61883 --enable-chromaprint --enable-frei0r --enable-libx264 --enable-shared
  libavutil      56. 70.100 / 56. 70.100
  libavcodec     58.134.100 / 58.134.100
  libavformat    58. 76.100 / 58. 76.100
  libavdevice    58. 13.100 / 58. 13.100
  libavfilter     7.110.100 /  7.110.100
  libswscale      5.  9.100 /  5.  9.100
  libswresample   3.  9.100 /  3.  9.100
  libpostproc    55.  9.100 / 55.  9.100
[wav @ 0x55a4068d5700] Discarding ID3 tags because more suitable tags were found.
Guessed Channel Layout for Input Stream #0.0 : mono
Input #0, wav, from '/tmp/gradio/9d12a9d64593891904775c7fb1b1bbf0c0d3eb4e/Blood_agitated_state_change_corporeal_shell1.wav':
  Metadata:
    title           : Blood_agitated_state_change_corporeal_shell1
    track           : 1
  Duration: 00:00:08.06, bitrate: 1536 kb/s
  Stream #0:0: Audio: pcm_f32le ([3][0][0][0] / 0x0003), 48000 Hz, mono, flt, 1536 kb/s
Stream mapping:
  Stream #0:0 -> #0:0 (pcm_f32le (native) -> pcm_s16le (native))
Press [q] to stop, [?] for help
Output #0, null, to 'pipe:':
  Metadata:
    title           : Blood_agitated_state_change_corporeal_shell1
    track           : 1
    encoder         : Lavf58.76.100
  Stream #0:0: Audio: pcm_s16le, 48000 Hz, mono, s16, 768 kb/s
    Metadata:
      encoder         : Lavc58.134.100 pcm_s16le
[silencedetect @ 0x55a4068d8c80] silence_start: 2.53865
[silencedetect @ 0x55a4068d8c80] silence_end: 3.24577 | silence_duration: 0.707125
[silencedetect @ 0x55a4068d8c80] silence_start: 7.3974
size=N/A time=00:00:08.06 bitrate=N/A speed=2.25e+03x    
video:0kB audio:756kB subtitle:0kB other streams:0kB global headers:0kB muxing overhead: unknown
[silencedetect @ 0x55a4068d8c80] silence_end: 8.06423 | silence_duration: 0.666833